<?xml version="1.0" encoding="utf-8"?>
<!-- Generator: Adobe Illustrator 19.0.0, SVG Export Plug-In . SVG Version: 6.00 Build 0)  -->
<svg version="1.1" id="layer" xmlns="http://www.w3.org/2000/svg" xmlns:xlink="http://www.w3.org/1999/xlink" x="0px" y="0px"
	 viewBox="-153 -46 652 652" style="enable-background:new -153 -46 652 652;" xml:space="preserve">
<style type="text/css">
	.st0{fill:#7AC143;}
</style>
<path d="M12.3,226h13.4v18.4h24.7V226h13.5v47.9H50.5v-20.7H25.7v20.7H12.3V226z M74.7,273.9h46.4v-8.9h-33v-11.7h29.6v-8.2H88.1
	v-10.3h32.3V226H74.7V273.9z M142.6,234.2h14.7c6.1,0,9.2,2,9.2,6.6c0,4.8-3.2,6.8-9.2,6.8h-14.7V234.2z M129.2,273.9h13.4v-18.7
	H156c6.8,0,9.2,2.2,10.2,7.2c0.7,3.8,0.6,8.5,2.1,11.5h13.4c-2.5-2.6-2.3-8.3-2.6-11.3c-0.4-4.9-2.3-9.8-8.9-11.2v-0.1
	c6.8-2.1,9.7-6.4,9.7-12c0-7.2-6.9-13.2-17.9-13.2h-33V273.9z M203.4,265.7v-13.1H218c5.8,0,9.7,1.9,9.7,6.8c0,5-4.7,6.3-9.9,6.3
	H203.4z M203.4,245.4v-11.2H216c4.8,0,9.2,1,9.2,5.5c0,4-3.4,5.7-8.2,5.7H203.4z M189.9,273.9h29.6c11.1,0,21.6-4.2,21.6-13.9
	c0-6-3.7-10.5-11.2-12.1c5.4-2.1,8.3-5.2,8.3-10c0-8.9-7.9-11.9-19.5-11.9h-28.8V273.9z M262.9,255.4l8-17.6h0.2l7.7,17.6H262.9z
	 M241,273.9h13.6l4.8-10.7h22.9l4.6,10.7h14L278,226h-13.8L241,273.9z M305.1,273.9h43.2v-8.9h-29.8v-39h-13.5V273.9z M353.1,273.9
	h13.4V226h-13.4V273.9z M377.4,273.9h13.4v-19.8h25.6V246h-25.6v-11.1h29.5V226h-43V273.9z M427.1,273.9h46.4v-8.9h-33v-11.7h29.6
	v-8.2h-29.6v-10.3h32.3V226h-45.7V273.9z"/>
<path class="st0" d="M-65.4,218.9c-33.8,0-61.1,27.4-61.1,61.1c0,33.7,27.4,61.1,61.1,61.1c33.7,0,61.1-27.4,61.1-61.1
	C-4.3,246.3-31.6,218.9-65.4,218.9 M-65.4,337.4c-31.7,0-57.4-25.7-57.4-57.4c0-31.7,25.6-57.4,57.4-57.4C-33.7,222.6-8,248.3-8,280
	C-8,311.7-33.7,337.4-65.4,337.4 M-118,279.6c20.9,6.6,40.5,26.9,46.5,52.9C-100.9,328.7-118,304.6-118,279.6 M-13,279.6
	c-0.1,25-17.2,49.1-46.5,52.9C-53.7,306.5-33.8,286.2-13,279.6 M-65.4,332.5c-22.2-34.3-17.4-81.4,0-106.8
	C-48.8,251.1-43.6,298.2-65.4,332.5 M12.3,284.9h13.4l25.5,32.1h0.2v-32.1h12.6v47.9H50.5L25,300.8h-0.2v32.1H12.3V284.9z
	 M126.8,314.7c0,12.9-9.8,19.2-26.1,19.2c-16.5,0-26-6.2-26-19.2v-29.8h13.4v29.8c0,5.2,1.7,10.4,12.6,10.4
	c9.6,0,12.7-3.2,12.7-10.4v-29.8h13.4V314.7z M151.7,293.8h-18.3v-8.9h50.1v8.9h-18.3v39h-13.4V293.8z M203.6,306.6h14.7
	c6.1,0,9.2-2,9.2-6.8c0-4.6-3.2-6.6-9.2-6.6h-14.7V306.6z M190.2,284.9h33c11,0,17.9,6,17.9,13.2c0,5.6-2.8,9.9-9.7,12v0.1
	c6.6,1.4,8.5,6.3,8.9,11.2c0.3,3,0.1,8.7,2.6,11.3h-13.4c-1.5-3-1.5-7.7-2.1-11.5c-0.9-5-3.4-7.2-10.2-7.2h-13.4v18.7h-13.4V284.9z
	 M253.7,284.9h13.4v47.9h-13.4V284.9z M293.3,293.8H275v-8.9h50.1v8.9h-18.3v39h-13.4V293.8z M333,284.9h13.4v47.9H333V284.9z
	 M383.9,325.1c12.1,0,16.6-8.1,16.6-16c0-8.4-4.5-16.4-16.6-16.4c-12.1,0-16.6,8.1-16.6,16.4C367.3,317.1,371.9,325.1,383.9,325.1
	 M383.9,283.8c18.8,0,30.1,11.1,30.1,25.3c0,13.8-11.2,24.9-30.1,24.9c-18.8,0-30.1-11.1-30.1-24.9
	C353.9,294.9,365.1,283.8,383.9,283.8 M421.9,284.9h13.4l25.5,32.1h0.2v-32.1h12.6v47.9h-13.4l-25.4-32.1h-0.2v32.1h-12.6V284.9z"/>
</svg>
